# xmcd
#
# Track frame offsets:
#	150
#	66494
#	92023
#	121900
#	186374
#	216832
#	291823
#
# Disc length: 4276 seconds
#
# Revision: 1
# Processed by: cddbd v1.5.2PL0 Copyright (c) Steve Scherf et al.
# Submitted via: audiograbber 1.83.01
#
DISCID=6b10b207
DTITLE=Grateful Dead - 74-07-19 Sellend Arena, Fresno CA
DYEAR=1900
DGENRE=
TTITLE0=He's Gone
TTITLE1=US Blues
TTITLE2=WRS Prelude > Part One
TTITLE3=Let It Grow
TTITLE4=Spanish Jam
TTITLE5=Eyes Of The World
TTITLE6=China Doll
EXTD=
EXTT0=
EXTT1=
EXTT2=
EXTT3=
EXTT4=
EXTT5=
EXTT6=
PLAYORDER=
